<svg width="131" height="53" viewBox="0 0 131 53" fill="none" xmlns="http://www.w3.org/2000/svg">
<path d="M4.7207 47.6761C4.7207 47.6692 4.7207 47.6624 5.05204 47.3095C5.38338 46.9567 6.04606 46.2581 13.7966 39.9358C21.5472 33.6135 36.3656 21.6886 45.2661 14.8326C54.1666 7.97657 56.7002 6.55075 58.2066 5.72474C59.7131 4.89874 60.1156 4.71576 60.2837 4.72046C60.4517 4.72517 60.373 4.9231 56.6604 10.4382C52.9477 15.9534 45.6035 26.7797 41.3543 33.3277C37.1051 39.8757 36.1735 41.8173 35.67 42.8772C35.1665 43.9372 35.1193 44.0567 46.7552 37.3095C58.3911 30.5622 81.7116 16.9447 93.6871 10.0318C105.663 3.11886 105.587 3.32326 100.872 10.1417C96.1579 16.9602 86.8077 30.3865 81.9074 37.3991C77.0071 44.4116 76.8399 44.6034 76.7967 44.6501C76.7534 44.6968 76.8391 44.5925 84.1409 39.1059C91.4427 33.6193 105.958 22.7535 113.728 16.9906C121.497 11.2277 122.991 10.0318 122.991 10.0318L125.721 7.90459" stroke="#A0FF88" stroke-width="9.44081" stroke-linecap="round"/>
</svg>
