<svg width="21" height="21" viewBox="0 0 21 21" fill="none" xmlns="http://www.w3.org/2000/svg">
<g clip-path="url(#clip0_178_1115)">
<path d="M10.1075 1.82014C12.8081 1.82014 13.1279 1.83199 14.19 1.87937C15.1771 1.9228 15.7101 2.08862 16.0654 2.22681C16.5353 2.40843 16.8748 2.62953 17.2262 2.98093C17.5816 3.33627 17.7987 3.67187 17.9803 4.14171C18.1185 4.49706 18.2843 5.03402 18.3278 6.01713C18.3751 7.08316 18.387 7.40297 18.387 10.0996C18.387 12.8002 18.3751 13.12 18.3278 14.1821C18.2843 15.1692 18.1185 15.7022 17.9803 16.0575C17.7987 16.5274 17.5776 16.8669 17.2262 17.2183C16.8709 17.5737 16.5353 17.7908 16.0654 17.9724C15.7101 18.1106 15.1731 18.2764 14.19 18.3199C13.124 18.3673 12.8042 18.3791 10.1075 18.3791C7.40691 18.3791 7.08711 18.3673 6.02503 18.3199C5.03797 18.2764 4.50495 18.1106 4.14961 17.9724C3.67977 17.7908 3.34022 17.5697 2.98882 17.2183C2.63348 16.863 2.41633 16.5274 2.23471 16.0575C2.09652 15.7022 1.93069 15.1652 1.88726 14.1821C1.83988 13.1161 1.82804 12.7963 1.82804 10.0996C1.82804 7.39902 1.83988 7.07921 1.88726 6.01713C1.93069 5.03007 2.09652 4.49706 2.23471 4.14171C2.41633 3.67187 2.63743 3.33232 2.98882 2.98093C3.34417 2.62559 3.67977 2.40843 4.14961 2.22681C4.50495 2.08862 5.04191 1.9228 6.02503 1.87937C7.08711 1.83199 7.40691 1.82014 10.1075 1.82014ZM10.1075 0C7.36348 0 7.01999 0.0118447 5.94211 0.0592237C4.86819 0.106603 4.12987 0.280326 3.49025 0.529065C2.823 0.78965 2.2584 1.13315 1.69775 1.69775C1.13315 2.2584 0.78965 2.823 0.529065 3.4863C0.280326 4.12987 0.106603 4.86424 0.0592237 5.93817C0.0118447 7.01999 0 7.36348 0 10.1075C0 12.8515 0.0118447 13.195 0.0592237 14.2729C0.106603 15.3468 0.280326 16.0852 0.529065 16.7248C0.78965 17.392 1.13315 17.9566 1.69775 18.5173C2.2584 19.0779 2.823 19.4254 3.4863 19.682C4.12987 19.9308 4.86424 20.1045 5.93817 20.1519C7.01604 20.1992 7.35953 20.2111 10.1036 20.2111C12.8476 20.2111 13.1911 20.1992 14.269 20.1519C15.3429 20.1045 16.0812 19.9308 16.7208 19.682C17.3841 19.4254 17.9487 19.0779 18.5094 18.5173C19.07 17.9566 19.4175 17.392 19.6741 16.7287C19.9229 16.0852 20.0966 15.3508 20.144 14.2769C20.1913 13.199 20.2032 12.8555 20.2032 10.1115C20.2032 7.36743 20.1913 7.02393 20.144 5.94606C20.0966 4.87214 19.9229 4.13382 19.6741 3.4942C19.4254 2.823 19.0819 2.2584 18.5173 1.69775C17.9566 1.1371 17.392 0.78965 16.7287 0.533014C16.0852 0.284274 15.3508 0.110551 14.2769 0.063172C13.195 0.0118448 12.8515 0 10.1075 0Z" fill="white"/>
<path d="M10.108 4.91602C7.24153 4.91602 4.91602 7.24153 4.91602 10.108C4.91602 12.9744 7.24153 15.2999 10.108 15.2999C12.9744 15.2999 15.2999 12.9744 15.2999 10.108C15.2999 7.24153 12.9744 4.91602 10.108 4.91602ZM10.108 13.4758C8.24834 13.4758 6.74011 11.9676 6.74011 10.108C6.74011 8.24834 8.24834 6.74011 10.108 6.74011C11.9676 6.74011 13.4758 8.24834 13.4758 10.108C13.4758 11.9676 11.9676 13.4758 10.108 13.4758Z" fill="white"/>
<path d="M16.7152 4.71016C16.7152 5.38136 16.1704 5.92227 15.5031 5.92227C14.8319 5.92227 14.291 5.37742 14.291 4.71016C14.291 4.03896 14.8359 3.49805 15.5031 3.49805C16.1704 3.49805 16.7152 4.04291 16.7152 4.71016Z" fill="white"/>
</g>
<defs>
<clipPath id="clip0_178_1115">
<rect width="20.215" height="20.215" fill="white"/>
</clipPath>
</defs>
</svg>
