<svg width="21" height="21" viewBox="0 0 21 21" fill="none" xmlns="http://www.w3.org/2000/svg">
<path d="M18.7186 0H1.49244C0.667254 0 0 0.651461 0 1.4569V18.7542C0 19.5596 0.667254 20.215 1.49244 20.215H18.7186C19.5438 20.215 20.215 19.5596 20.215 18.7581V1.4569C20.215 0.651461 19.5438 0 18.7186 0ZM5.99739 17.2262H2.99672V7.57669H5.99739V17.2262ZM4.49705 6.26192C3.53368 6.26192 2.75588 5.48412 2.75588 4.52469C2.75588 3.56527 3.53368 2.78746 4.49705 2.78746C5.45648 2.78746 6.23428 3.56527 6.23428 4.52469C6.23428 5.48017 5.45648 6.26192 4.49705 6.26192ZM17.2262 17.2262H14.2295V12.5357C14.2295 11.4183 14.2097 9.97722 12.6699 9.97722C11.1104 9.97722 10.8735 11.1972 10.8735 12.4567V17.2262H7.8807V7.57669H10.755V8.8954H10.7945C11.1933 8.13734 12.1724 7.33584 13.6294 7.33584C16.6656 7.33584 17.2262 9.33366 17.2262 11.9316V17.2262Z" fill="white"/>
</svg>
