<?xml version="1.0" encoding="UTF-8"?><svg id="Layer_2" xmlns="http://www.w3.org/2000/svg" xmlns:xlink="http://www.w3.org/1999/xlink" viewBox="0 0 1685.76 298.65"><defs><style>.cls-1{fill:#fff;}.cls-2{fill:none;}.cls-3{fill:#eaeae9;}.cls-4{clip-path:url(#clippath-1);}.cls-5{fill:#9896a9;}.cls-6{fill:#ceced7;}.cls-7{clip-path:url(#clippath-2);}.cls-8{clip-path:url(#clippath);}</style><clipPath id="clippath"><rect class="cls-2" x="747.59" y="50.87" width="134.25" height="176.3"/></clipPath><clipPath id="clippath-1"><rect class="cls-2" x="705.46" y="82.59" width="176.39" height="174"/></clipPath><clipPath id="clippath-2"><rect class="cls-2" x="705.46" y="118.73" width="176.39" height="137.85"/></clipPath></defs><g id="Layer_1-2"><g class="cls-8"><path class="cls-5" d="M758.94,50.92s53.23,95.1-10.16,173.94l133.06-71.14-122.91-102.8Z"/></g><g class="cls-4"><path class="cls-6" d="M705.46,256.51s115.17-93.85,92.81-172.69l83.57,69.9-176.39,102.79Z"/></g><g class="cls-7"><path class="cls-3" d="M705.46,256.51s127.4-89.48,137.04-135.7l39.35,32.92-176.39,102.79Z"/></g><path class="cls-1" d="M95.28,118.16c8.67,9.44,13.02,21.02,13.02,34.73s-4.35,25.32-13.02,34.83c-8.65,9.51-19.66,14.27-33.01,14.27-12.28,0-22.39-3.84-30.33-11.55v55.76H0V106.68h31.58v10.48h.36c7.94-8.8,18.04-13.2,30.33-13.2,13.35,0,24.36,4.74,33.01,14.2ZM68.13,168.59c4.15-4.09,6.22-9.33,6.22-15.7s-1.99-11.6-5.97-15.63c-3.96-4.02-9.18-6.04-15.66-6.04s-11.43,2.06-15.45,6.15c-4.03,4.08-6.04,9.25-6.04,15.52s2.07,11.61,6.22,15.7c4.15,4.1,9.24,6.15,15.27,6.15s11.27-2.05,15.41-6.15Z"/><path class="cls-1" d="M114.92,199.27v-92.59h31.94v13.34h.36c.23-.47.63-1.07,1.18-1.79.55-.72,1.72-1.98,3.5-3.79,1.81-1.81,3.74-3.43,5.79-4.86,2.05-1.45,4.69-2.75,7.94-3.9,3.24-1.14,6.55-1.72,9.94-1.72s6.9.49,10.26,1.47c3.38.96,5.85,1.91,7.4,2.86l2.54,1.47-13.38,27.07c-3.96-3.38-9.5-5.08-16.59-5.08-3.84,0-7.15.85-9.94,2.54-2.77,1.7-4.72,3.75-5.87,6.15-1.13,2.41-1.93,4.46-2.43,6.15-.48,1.67-.72,2.99-.72,3.93v48.75h-31.94Z"/><path class="cls-1" d="M201.89,188.29c-10.28-9.16-15.41-20.9-15.41-35.23s5.35-26.09,16.06-35.3c10.7-9.2,23.94-13.8,39.73-13.8s28.59,4.64,39.23,13.91c10.66,9.25,15.99,20.98,15.99,35.19s-5.21,25.92-15.63,35.12c-10.4,9.21-23.6,13.8-39.59,13.8s-30.08-4.56-40.38-13.7ZM226.64,137.37c-4.15,4.08-6.22,9.32-6.22,15.7s1.98,11.58,5.94,15.63c3.98,4.03,9.23,6.04,15.74,6.04s11.38-2.05,15.41-6.15c4.02-4.09,6.04-9.27,6.04-15.52s-2.07-11.62-6.22-15.7c-4.15-4.09-9.23-6.15-15.24-6.15s-11.3,2.06-15.45,6.15Z"/><path class="cls-1" d="M324.29,106.68l22.57,50.36,22.57-50.36h37.91l-49.64,92.59h-21.67l-49.64-92.59h37.91Z"/><path class="cls-1" d="M414.77,55.07c3.74-3.74,8.2-5.61,13.38-5.61s9.62,1.88,13.34,5.61c3.74,3.72,5.61,8.17,5.61,13.34s-1.88,9.64-5.61,13.38c-3.72,3.72-8.17,5.58-13.34,5.58s-9.64-1.86-13.38-5.58c-3.72-3.74-5.58-8.2-5.58-13.38s1.86-9.62,5.58-13.34ZM411.73,106.68v92.59h31.94v-92.59h-31.94Z"/><path class="cls-1" d="M462.26,187.83c-8.65-9.46-12.98-21.05-12.98-34.76s4.33-25.32,12.98-34.83c8.67-9.51,19.69-14.27,33.05-14.27,12.28,0,22.39,3.85,30.33,11.55V44.06h31.94v155.22h-31.58v-10.48h-.36c-7.94,8.8-18.05,13.2-30.33,13.2-13.36,0-24.37-4.72-33.05-14.16ZM489.44,137.37c-4.15,4.08-6.22,9.32-6.22,15.7s1.98,11.58,5.94,15.63c3.98,4.03,9.23,6.04,15.74,6.04s11.38-2.05,15.41-6.15c4.02-4.09,6.04-9.27,6.04-15.52s-2.07-11.62-6.22-15.7c-4.15-4.09-9.23-6.15-15.24-6.15s-11.3,2.06-15.45,6.15Z"/><path class="cls-1" d="M600.2,106.68v44.03c0,9.16,1.38,15.66,4.15,19.53,2.76,3.84,7.45,5.76,14.06,5.76s11.32-1.91,14.09-5.76c2.76-3.86,4.15-10.37,4.15-19.53v-44.03h31.94v51.79c0,15.41-4.01,26.52-12.02,33.33-7.99,6.8-20.71,10.19-38.16,10.19s-30.15-3.4-38.16-10.19c-8.01-6.81-12.02-17.93-12.02-33.33v-51.79h31.97Z"/><path class="cls-1" d="M717.57,103.96c5.29,0,10.52.61,15.7,1.82,5.17,1.2,9.02,2.4,11.55,3.61l3.79,1.79-10.44,20.96c-7.22-3.86-14.09-5.79-20.6-5.79-3.6,0-6.15.39-7.65,1.18-1.5.79-2.25,2.25-2.25,4.4,0,.5.05.99.18,1.47.12.48.36.93.72,1.36.36.41.68.77.97,1.07.3.31.82.64,1.54,1,.73.36,1.31.63,1.72.82.43.17,1.12.43,2.07.79.97.36,1.7.63,2.18.82.47.17,1.29.45,2.43.82,1.14.36,2.01.6,2.61.72,3.74,1.07,6.99,2.28,9.76,3.61,2.76,1.31,5.67,3.11,8.73,5.4,3.08,2.29,5.45,5.19,7.15,8.69,1.69,3.49,2.54,7.44,2.54,11.87,0,21.08-14.63,31.62-43.88,31.62-6.61,0-12.89-1.03-18.85-3.08-5.96-2.05-10.26-4.09-12.91-6.15l-3.97-3.25,12.98-21.82c.97.84,2.24,1.82,3.79,2.97,1.57,1.14,4.4,2.72,8.48,4.72,4.09,1.98,7.65,2.97,10.66,2.97,6.63,0,9.94-2.23,9.94-6.69,0-2.05-.85-3.65-2.54-4.79-1.67-1.14-4.52-2.43-8.55-3.86-4.03-1.45-7.19-2.77-9.48-3.97-5.79-3.02-10.37-6.44-13.73-10.23s-5.04-8.81-5.04-15.06c0-9.39,3.63-16.7,10.91-21.92,7.27-5.24,17.1-7.87,29.51-7.87Z"/><path class="cls-1" d="M1125.23,151.62c0-17.23,3.45-33.31,11.49-47.09,8.04-13.78,18.38-24.12,32.16-32.16,13.78-8.04,28.72-11.49,47.09-11.49s39.05,5.74,53.99,17.23c14.93,11.49,25.27,26.42,29.86,45.95h-48.24c-3.45-6.89-9.19-12.63-14.93-17.23-6.89-3.45-13.78-5.74-21.82-5.74-13.78,0-24.12,4.59-32.16,13.78-8.04,9.19-12.63,21.82-12.63,37.9s4.59,27.57,12.63,37.9c8.04,9.19,19.53,13.78,32.16,13.78s16.08-2.3,21.82-5.74c6.89-3.45,11.49-9.19,14.93-17.23h48.24c-4.59,19.53-14.93,34.46-29.86,45.95-14.93,11.49-33.31,16.08-53.99,16.08s-33.31-3.45-47.09-11.49c-13.78-8.04-24.12-18.38-32.16-32.16-8.04-13.78-11.49-29.86-11.49-47.09v-1.15ZM1412.38,241.22l-36.76-67.77h-10.34v67.77h-43.65V63.18h73.51c13.78,0,26.42,2.3,35.61,6.89,10.34,4.59,17.23,11.49,21.82,20.68,4.59,8.04,6.89,18.38,6.89,28.72s-3.45,22.97-10.34,32.16c-6.89,9.19-16.08,16.08-29.86,19.53l41.35,71.22h-49.39l1.15-1.15ZM1365.29,143.58h26.42c8.04,0,13.78-2.3,18.38-5.74,4.59-3.45,5.74-9.19,5.74-16.08s-2.3-12.63-5.74-16.08c-3.45-3.45-10.34-5.74-18.38-5.74h-26.42v44.8-1.15ZM1685.76,63.18v178.04h-43.65v-106.82l-40.2,106.82h-35.61l-40.2-106.82v106.82h-43.65V63.18h51.69l50.54,124.05,49.39-124.05h51.69Z"/><rect class="cls-1" x="978.74" width="3.45" height="298.65"/></g></svg>