<svg width="38" height="37" viewBox="0 0 38 37" fill="none" xmlns="http://www.w3.org/2000/svg">
<g clip-path="url(#clip0_152_724)">
<path d="M26.8872 4.25022H1.75766V24.2215C1.75766 24.3139 1.79608 24.3983 1.85798 24.4602C1.91989 24.5221 2.00435 24.5603 2.09675 24.5603H5.39892V26.3179H2.09675C1.5192 26.3179 0.994706 26.0828 0.615364 25.7026C0.235717 25.3235 0 24.7993 0 24.2218V2.09675C0 1.5192 0.235717 0.994706 0.615364 0.615059C0.994706 0.235717 1.5192 0 2.09675 0H26.5448C27.1223 0 27.6462 0.236326 28.0256 0.615669C28.4055 0.995621 28.6415 1.52072 28.6415 2.09675H28.6382L28.6376 7.76005H26.8872V4.25022ZM10.5084 36.2912C9.93882 36.2912 9.42195 36.0595 9.0478 35.685C8.67333 35.3108 8.44128 34.794 8.44128 34.224V12.1603C8.44128 11.5907 8.67364 11.0738 9.0478 10.6996C9.42195 10.3252 9.93882 10.0931 10.5084 10.0931H35.4035C35.9732 10.0931 36.49 10.3261 36.8639 10.6999C37.2386 11.0744 37.4707 11.5919 37.4707 12.1603V34.2237C37.4707 34.7924 37.2383 35.3102 36.8639 35.6847C36.4897 36.0588 35.9729 36.2909 35.4035 36.2909L10.5084 36.2912ZM35.713 16.7133H10.1989V34.2237C10.1989 34.3082 10.234 34.3857 10.2904 34.4424C10.3468 34.4985 10.424 34.5335 10.5084 34.5335H35.4035C35.4874 34.5335 35.5642 34.4985 35.6213 34.4418C35.6783 34.385 35.7133 34.3079 35.7133 34.2237L35.713 16.7133Z" fill="black"/>
</g>
<defs>
<clipPath id="clip0_152_724">
<rect width="37.4707" height="36.2912" fill="white"/>
</clipPath>
</defs>
</svg>
