<svg width="38" height="34" viewBox="0 0 38 34" fill="none" xmlns="http://www.w3.org/2000/svg">
<g clip-path="url(#clip0_152_736)">
<path fill-rule="evenodd" clip-rule="evenodd" d="M16.1623 4.87988L14.444 13.6154L12.7011 10.9889C8.94645 12.4963 6.83978 14.9821 6.52791 18.8071C3.44588 13.4166 5.31711 8.58565 9.22468 5.75434L7.44518 3.07591L16.1623 4.87988ZM23.1244 0H35.7797C36.2719 0 36.7214 0.2018 37.0455 0.525902C37.3696 0.850004 37.5714 1.29641 37.5714 1.79174V11.631C37.5714 12.1233 37.3696 12.5727 37.0455 12.8968C37.0088 12.9335 36.9721 12.9671 36.9324 12.9977C36.6205 13.2607 36.2169 13.4227 35.7797 13.4227H23.1244C22.6321 13.4227 22.1827 13.2209 21.8586 12.8968C21.5345 12.5727 21.3327 12.1263 21.3327 11.631V1.79174C21.3327 1.30252 21.5345 0.856119 21.8586 0.528959L21.8616 0.525902C22.1827 0.2018 22.6321 0 23.1244 0ZM1.79174 20.446H14.447C14.9393 20.446 15.3887 20.6478 15.7128 20.9719C16.0369 21.296 16.2387 21.7424 16.2387 22.2377V32.077C16.2387 32.5692 16.0369 33.0187 15.7128 33.3428C15.6762 33.3795 15.6395 33.4131 15.5997 33.4437C15.2878 33.7066 14.8842 33.8687 14.447 33.8687H1.79174C1.29947 33.8687 0.850004 33.6669 0.525902 33.3428C0.2018 33.0187 0 32.5692 0 32.0739V22.2346C0 21.7424 0.2018 21.2929 0.525902 20.9688C0.562593 20.9321 0.605399 20.8954 0.645147 20.8648C0.957019 20.6019 1.35756 20.446 1.79174 20.446ZM13.8355 22.8431H2.40019V31.4654H13.8386V22.8431H13.8355ZM35.1712 2.40019H23.7359V11.0225H35.1743V2.40019H35.1712ZM21.7087 31.0466L23.4271 22.3111L25.1699 24.9375C28.9246 23.4301 31.0313 20.9474 31.3462 17.1224C34.4282 22.5129 32.557 27.3469 28.6494 30.1751L30.4289 32.8536L21.7087 31.0466Z" fill="black"/>
</g>
<defs>
<clipPath id="clip0_152_736">
<rect width="37.5714" height="33.8656" fill="white"/>
</clipPath>
</defs>
</svg>
