<svg width="55" height="32" viewBox="0 0 55 32" fill="none" xmlns="http://www.w3.org/2000/svg">
<g clip-path="url(#clip0_152_719)">
<path fill-rule="evenodd" clip-rule="evenodd" d="M1.11742 28.9124H6.65614C6.24701 28.8064 5.93905 28.4264 5.93905 27.9846V0.95874C5.93905 0.432979 6.37019 0 6.8937 0H46.9141C47.442 0 47.8688 0.432979 47.8688 0.95874V27.9802C47.8688 28.4264 47.5652 28.802 47.1517 28.908H52.9412C53.5571 28.908 54.0586 29.4117 54.0586 30.0302C54.0586 30.6487 53.5571 31.1524 52.9412 31.1524H1.11742C0.50152 31.1524 0 30.6487 0 30.0302C0 29.4161 0.50152 28.9124 1.11742 28.9124ZM35.0712 20.3103C34.6885 20.8449 34.1474 21.2513 33.5139 21.4678C33.4831 21.4811 33.4523 21.4899 33.4215 21.4899C33.3907 21.4899 33.3291 21.4413 33.3291 21.4722V21.4811C33.3291 21.6976 33.1531 21.8743 32.9376 21.8743H32.0929C31.8773 21.8743 31.7014 21.6976 31.7014 21.4811V15.384C31.7014 15.1675 31.8773 14.9908 32.0929 14.9908H32.9376C33.1531 14.9908 33.3291 15.1675 33.3291 15.384V15.4194C33.3555 15.4061 33.3863 15.4017 33.4215 15.4017C33.4479 15.4017 33.5007 15.3884 33.4919 15.4149C33.9714 15.574 34.4025 15.8479 34.7501 16.2014V13.197C34.7501 5.10739 19.2161 5.19133 19.2161 13.197V16.4002C19.5901 15.9495 20.0872 15.6005 20.6547 15.4105C20.6767 15.4017 20.7031 15.3973 20.7251 15.3973C20.7559 15.3973 20.8175 15.4459 20.8175 15.4149V15.3796C20.8175 15.1631 20.9935 14.9864 21.209 14.9864H22.0537C22.2693 14.9864 22.4452 15.1631 22.4452 15.3796V21.4767C22.4452 21.6931 22.2693 21.8699 22.0537 21.8699H21.209C20.9935 21.8699 20.8175 21.6931 20.8175 21.4767V21.4722C20.7911 21.4855 20.7603 21.4899 20.7251 21.4899C20.6943 21.4899 20.6635 21.4811 20.6327 21.4678C19.9992 21.2513 19.4581 20.8404 19.0754 20.3103C18.873 20.0319 18.719 19.7182 18.6178 19.3824H18.2747V13.197C18.2703 3.1148 35.7751 3.17665 35.7795 13.197V19.3869H35.5287C35.4276 19.7182 35.4188 20.3103 35.0712 20.3103ZM25.274 20.6549C24.8736 21.1851 24.5525 21.7815 24.8868 22.6563C25.1024 23.2218 25.5951 23.6901 26.2198 23.9464C25.1992 21.6887 28.1291 20.8758 28.2171 23.5532C29.1982 22.7358 29.1894 21.5341 28.4723 20.5577C28.1335 20.0982 27.9619 19.8375 27.8872 19.5724C27.8432 19.4266 27.8344 19.2808 27.8344 19.0997C27.8344 18.4767 27.9048 15.2205 27.918 14.5622C27.9444 13.3207 29.8448 12.6934 29.1718 10.9261C28.9562 10.3606 28.4635 9.89225 27.8388 9.636C28.8594 11.8937 25.9295 12.7066 25.8415 10.0292C24.8604 10.8466 24.8692 12.0483 25.5863 13.0247C25.9031 13.4533 26.2726 13.7184 26.2506 14.5622C26.2242 15.1454 26.189 18.3972 26.1494 18.9804C26.1362 19.2146 26.1142 19.3692 26.0571 19.515C25.9559 19.7801 25.7491 20.0231 25.274 20.6505V20.6549ZM7.57119 1.50217H46.3686V27.7107H7.57119V1.50217ZM25.4587 29.3321H28.5998C28.8946 29.3321 29.1366 29.5751 29.1366 29.8711C29.1366 30.1672 28.8946 30.4102 28.5998 30.4102H25.4587C25.164 30.4102 24.922 30.1672 24.922 29.8711C24.922 29.5707 25.164 29.3321 25.4587 29.3321Z" fill="black"/>
</g>
<defs>
<clipPath id="clip0_152_719">
<rect width="54.0586" height="31.1524" fill="white"/>
</clipPath>
</defs>
</svg>
