<svg width="32" height="34" viewBox="0 0 32 34" fill="none" xmlns="http://www.w3.org/2000/svg">
<g clip-path="url(#clip0_152_756)">
<path d="M30.0524 29.2248C29.12 30.5199 27.7981 31.514 26.2558 32.0406C26.186 32.0729 26.1081 32.089 26.0302 32.089C25.9549 32.089 25.8797 32.0729 25.8098 32.0433V32.0594C25.8098 32.5861 25.3799 33.0159 24.8506 33.0159H22.7871C22.2605 33.0159 21.8279 32.5861 21.8279 32.0594V17.2469C21.8279 16.7202 22.2578 16.2877 22.7871 16.2877H24.8506C25.3772 16.2877 25.8098 16.7175 25.8098 17.2469V17.3382C25.8797 17.306 25.9549 17.2898 26.0302 17.2898C26.0893 17.2898 26.1484 17.3006 26.2021 17.3167V17.3194C27.3736 17.709 28.4214 18.3726 29.2705 19.2297V15.8927C29.2705 11.892 27.9298 8.46894 25.56 6.05883L24.5094 7.62527C22.3734 5.27428 19.2969 3.79114 15.89 3.79114C12.4616 3.79114 9.36365 5.29308 7.22761 7.67363L5.95673 6.12063C3.61918 8.50386 2.29457 11.8785 2.29457 15.8927V19.7214C3.20809 18.6252 4.42255 17.7815 5.80627 17.3221V17.3194C5.8627 17.3006 5.92181 17.2898 5.97823 17.2898C6.05346 17.2898 6.13138 17.306 6.19855 17.3355V17.2442C6.19855 16.7175 6.63113 16.285 7.15775 16.285H9.22125C9.74787 16.285 10.1805 16.7149 10.1805 17.2442V32.0567C10.1805 32.5834 9.74787 33.0133 9.22125 33.0133H7.15775C6.63113 33.0133 6.19855 32.5834 6.19855 32.0567V32.0406C6.13138 32.0702 6.05615 32.0863 5.97823 32.0863C5.89762 32.0863 5.82239 32.0675 5.75522 32.0379C4.21297 31.5113 2.89104 30.5172 1.95871 29.2221C1.4697 28.545 1.08817 27.7873 0.838296 26.9732H0V15.8927C0 11.5212 1.78675 7.55003 4.66705 4.66974C7.54735 1.78944 11.5212 0 15.89 0C20.2615 0 24.2353 1.78944 27.113 4.66705C29.9932 7.54735 31.78 11.5185 31.78 15.89V26.9732H31.1701C30.9256 27.7793 30.5441 28.5424 30.0524 29.2248Z" fill="black"/>
</g>
<defs>
<clipPath id="clip0_152_756">
<rect width="31.78" height="33.0159" fill="white"/>
</clipPath>
</defs>
</svg>
