<svg width="43" height="40" viewBox="0 0 43 40" fill="none" xmlns="http://www.w3.org/2000/svg">
<g clip-path="url(#clip0_152_748)">
<path fill-rule="evenodd" clip-rule="evenodd" d="M35.1727 2.43303L36.059 3.59986C36.2917 3.90782 36.2335 4.34923 35.9255 4.58191L34.9845 5.29706C35.1556 5.75216 35.2651 6.23805 35.3096 6.73421L36.3806 6.88135C36.7639 6.93268 37.0308 7.28854 36.9794 7.67178L36.781 9.12604C36.7296 9.50928 36.3738 9.7796 35.9905 9.72485L34.8203 9.56403C34.6116 10.0191 34.3447 10.4366 34.0299 10.8096L34.6868 11.6718C34.9195 11.9798 34.8579 12.4212 34.55 12.6539L33.3831 13.5401C33.0752 13.7728 32.6338 13.7112 32.4011 13.4067L31.6859 12.4657C31.2274 12.6368 30.7449 12.7463 30.2454 12.7908L30.0982 13.8618C30.0469 14.245 29.691 14.5119 29.3078 14.4606L27.8535 14.2621C27.4703 14.2108 27.2034 13.8549 27.2547 13.4717L27.4156 12.3015C26.9639 12.0927 26.543 11.8258 26.17 11.5144L25.3077 12.168C24.9998 12.4007 24.5584 12.3425 24.3257 12.0346L23.4394 10.8677C23.2068 10.5598 23.2649 10.1184 23.5729 9.88567L24.5139 9.17052C24.3428 8.712 24.2333 8.22953 24.1888 7.73337L23.1178 7.58624C22.7346 7.53491 22.4642 7.17904 22.519 6.7958L22.7174 5.34155C22.7722 4.95831 23.1246 4.69141 23.5079 4.74273L24.6781 4.90356C24.8869 4.45188 25.1538 4.031 25.4651 3.65803L24.8116 2.79574C24.5789 2.4912 24.6371 2.04979 24.945 1.81711L26.1119 0.930867C26.4198 0.698186 26.8612 0.756356 27.0939 1.06432L27.8091 2.00531C28.2642 1.83422 28.75 1.72472 29.2462 1.68024L29.3933 0.609219C29.4447 0.22598 29.8005 -0.0443411 30.1838 0.00698561L31.638 0.205449C32.0213 0.256776 32.2916 0.612641 32.2368 0.995881L32.076 2.16613C32.5311 2.37486 32.9486 2.64176 33.325 2.95656L34.1873 2.303C34.4952 2.0669 34.9366 2.12507 35.1727 2.43303ZM10.464 19.1929H31.3164C31.7133 19.1929 32.076 19.3572 32.3395 19.6206L32.3429 19.6241L32.3463 19.6275C32.6098 19.891 32.7706 20.2537 32.7706 20.6506V38.0298C32.7706 38.4302 32.6064 38.7929 32.3429 39.0564C32.0794 39.3199 31.7167 39.4841 31.3164 39.4841H10.464C10.0671 39.4841 9.7044 39.3233 9.43751 39.0564L9.43408 39.053L9.43066 39.0495C9.16718 38.7861 9.00636 38.4233 9.00636 38.0264V20.6438C9.00978 20.2434 9.17403 19.8807 9.43408 19.6172C9.45119 19.6035 9.46488 19.5864 9.48199 19.5727C9.74547 19.3401 10.0876 19.1929 10.464 19.1929ZM12.8182 35.6585C12.5171 35.6585 12.2707 35.3882 12.2707 35.0597C12.2707 34.7278 12.5171 34.4575 12.8182 34.4575H19.1314C19.4325 34.4575 19.6789 34.7278 19.6789 35.0597C19.6789 35.3916 19.4325 35.662 19.1314 35.662H12.8182V35.6585ZM21.732 35.6585C21.4274 35.6585 21.1776 35.3882 21.1776 35.0597C21.1776 34.7278 21.424 34.4575 21.732 34.4575H28.5413C28.8459 34.4575 29.0956 34.7278 29.0956 35.0597C29.0956 35.3916 28.8493 35.662 28.5413 35.662H21.732V35.6585ZM12.411 25.9167H29.0272V32.4215H12.411V25.9167ZM31.4601 24.4009C31.4122 24.4077 31.3677 24.4111 31.3198 24.4111H10.464C10.4161 24.4111 10.3682 24.4077 10.3237 24.4009V38.0264C10.3237 38.0641 10.3409 38.0983 10.3614 38.1257L10.3648 38.1291C10.3888 38.153 10.423 38.1667 10.464 38.1667H31.3164C31.354 38.1667 31.3882 38.153 31.4156 38.1257C31.4396 38.0983 31.4601 38.0641 31.4601 38.0264V24.4009ZM18.7037 21.0681C19.2238 21.0681 19.6481 21.4924 19.6481 22.0125C19.6481 22.5326 19.2238 22.9569 18.7037 22.9569C18.1836 22.9569 17.7593 22.5326 17.7593 22.0125C17.7593 21.4924 18.1836 21.0681 18.7037 21.0681ZM15.4017 21.0681C15.9252 21.0681 16.3461 21.4924 16.3461 22.0125C16.3461 22.5326 15.9218 22.9569 15.4017 22.9569C14.8816 22.9569 14.4573 22.5326 14.4573 22.0125C14.4573 21.4924 14.8816 21.0681 15.4017 21.0681ZM12.1031 21.0681C12.6266 21.0681 13.0475 21.4924 13.0475 22.0125C13.0475 22.5326 12.6232 22.9569 12.1031 22.9569C11.583 22.9569 11.1587 22.5326 11.1587 22.0125C11.1587 21.4924 11.583 21.0681 12.1031 21.0681ZM20.7123 3.92151C20.0861 3.8736 19.4531 3.88044 18.8269 3.94204C16.9004 4.12681 15.0287 4.82828 13.4821 6.02932C11.6925 7.41515 10.334 9.48875 9.81048 12.2364L9.64623 13.0953L8.79079 13.2459C7.95245 13.393 7.20308 13.5949 6.5461 13.8515C5.90965 14.0979 5.34163 14.4024 4.84547 14.7617C4.44855 15.0491 4.10637 15.3708 3.81552 15.7198C2.91559 16.7977 2.49813 18.1493 2.50839 19.518C2.51866 20.9072 2.97034 22.3102 3.80525 23.4633C4.11663 23.891 4.47592 24.2845 4.88653 24.6267C5.30399 24.9723 5.77278 25.2597 6.29973 25.4753C6.59743 25.5985 6.91565 25.7012 7.24756 25.7833V28.3462C6.56321 28.223 5.9336 28.0382 5.34505 27.7953C4.56831 27.4736 3.88053 27.0596 3.27487 26.5532C2.70001 26.0741 2.19701 25.5301 1.76929 24.9381C0.629836 23.3641 0.0139151 21.441 0.000228006 19.5248C-0.0134591 17.5881 0.588775 15.6616 1.88905 14.1013C2.30993 13.5949 2.80609 13.1295 3.37411 12.7189C4.03451 12.2399 4.79072 11.8361 5.64617 11.5042C6.23472 11.2749 6.86432 11.0833 7.52815 10.9293C8.28094 7.93868 9.88576 5.63582 11.9491 4.03785C13.879 2.54253 16.2024 1.66997 18.5942 1.44071C19.85 1.32095 21.1229 1.3757 22.3684 1.60838C22.3411 1.7213 22.3171 1.83422 22.3034 1.95056L22.3 1.97109C22.276 2.16613 22.2658 2.36117 22.276 2.55964C22.0126 2.66229 21.7662 2.80258 21.5438 2.97367L21.5335 2.98052C21.2016 3.23031 20.921 3.55195 20.7123 3.92151ZM38.8169 10.4913C39.0086 10.6658 39.1933 10.8472 39.3747 11.0422C39.7408 11.4357 40.0864 11.8806 40.4115 12.3767C41.5065 14.0603 42.0676 16.3084 42.0437 18.5086C42.0197 20.6677 41.438 22.8166 40.2472 24.3975C39.4705 25.4274 38.4748 26.2692 37.2806 26.9364C36.4627 27.3949 35.5423 27.7748 34.5397 28.0827V25.4308C35.0803 25.229 35.5833 25.0031 36.0453 24.7465C36.9452 24.2435 37.6809 23.631 38.2318 22.8953C39.0873 21.7558 39.5081 20.1442 39.5252 18.4915C39.5458 16.7566 39.1215 15.0149 38.2968 13.7489C38.0607 13.3827 37.8007 13.0542 37.5269 12.76C37.4208 12.6471 37.3148 12.541 37.2053 12.4383C37.2224 12.2672 37.2292 12.0927 37.219 11.9182C37.4824 11.8156 37.7288 11.6753 37.9512 11.5042L37.9615 11.4973C38.3139 11.227 38.6082 10.8848 38.8169 10.4913ZM30.1393 4.38002C31.7167 4.5956 32.8186 6.04986 32.603 7.6273C32.3874 9.20474 30.9331 10.31 29.3557 10.0944C27.7783 9.87883 26.673 8.42457 26.892 6.84713C27.111 5.26969 28.5619 4.16445 30.1393 4.38002Z" fill="black"/>
</g>
<defs>
<clipPath id="clip0_152_748">
<rect width="42.0469" height="39.484" fill="white"/>
</clipPath>
</defs>
</svg>
