<svg width="44" height="35" viewBox="0 0 44 35" fill="none" xmlns="http://www.w3.org/2000/svg">
<g clip-path="url(#clip0_152_744)">
<path fill-rule="evenodd" clip-rule="evenodd" d="M17.4355 12.4722C19.9917 14.3042 24.0888 12.3373 25.7006 15.5255C26.1267 16.3704 26.219 17.5278 25.8355 18.4474C25.6793 18.8166 25.4521 19.1468 25.1397 19.3988C25.0012 19.5089 24.8486 19.6083 24.6781 19.6935C22.5764 20.7373 20.3823 19.2781 19.2213 17.5136C18.1527 15.8876 17.6876 13.8604 17.4355 12.4722ZM35.5066 0H2.57752C1.16095 0 0 1.16095 0 2.57752V30.1918C0 31.6083 1.16095 32.7693 2.57752 32.7693H28.2675L26.0415 30.8734H2.52781C2.329 30.8734 2.15503 30.7989 2.02367 30.6639C1.89231 30.5326 1.8142 30.3551 1.8142 30.1598V7.21776H1.80355H36.1669V17.7515L38.0841 19.3065V2.57752C38.0841 1.16095 36.9231 0 35.5066 0ZM5.03078 2.89704C4.32782 2.89704 3.75622 3.46864 3.75622 4.1716C3.75622 4.87456 4.32782 5.44261 5.03078 5.44261C5.73374 5.44261 6.30533 4.87101 6.30533 4.1716C6.30533 3.46864 5.73374 2.89704 5.03078 2.89704ZM13.6616 2.89704C12.9586 2.89704 12.387 3.46864 12.387 4.1716C12.387 4.87456 12.955 5.44261 13.6616 5.44261C14.3645 5.44261 14.9361 4.87101 14.9361 4.1716C14.9361 3.46864 14.3645 2.89704 13.6616 2.89704ZM9.34794 2.89704C8.64498 2.89704 8.07338 3.46864 8.07338 4.1716C8.07338 4.87456 8.64498 5.44261 9.34794 5.44261C10.0509 5.44261 10.6225 4.87101 10.6225 4.1716C10.6189 3.46864 10.0509 2.89704 9.34794 2.89704ZM30.4012 26.4639C31.8249 25.3278 32.929 24.0178 33.6817 22.516L42.8415 32.1764C43.5338 32.8296 43.9243 33.387 43.3456 34.3882C43.058 34.6829 42.7527 34.8426 42.4296 34.8639C42.1101 34.8853 41.7728 34.7716 41.4214 34.516L30.4012 26.4639ZM25.5693 20.858C26.187 20.5278 27.032 19.7113 27.2344 18.8201L32.9681 21.9657C32.1409 23.613 31.0864 25.0225 29.6415 26.0237C28.1326 24 27.2876 22.7787 25.5693 20.858Z" fill="black"/>
</g>
<defs>
<clipPath id="clip0_152_744">
<rect width="43.6261" height="34.8675" fill="white"/>
</clipPath>
</defs>
</svg>
