<svg width="42" height="33" viewBox="0 0 42 33" fill="none" xmlns="http://www.w3.org/2000/svg">
<g clip-path="url(#clip0_152_732)">
<path fill-rule="evenodd" clip-rule="evenodd" d="M2.80752 0H38.6573C40.2028 0 41.4648 1.26203 41.4648 2.80752V30.0931C41.4648 31.6385 40.2028 32.9006 38.6573 32.9006H2.80752C1.26203 32.9006 0 31.6385 0 30.0931V2.80752C0 1.26203 1.26203 0 2.80752 0ZM8.04799 27.623C7.72742 27.623 7.47096 27.3395 7.47096 26.9886C7.47096 26.6377 7.73079 26.3542 8.04799 26.3542H22.4028C22.7233 26.3542 22.9798 26.6377 22.9798 26.9886C22.9798 27.3395 22.72 27.623 22.4028 27.623H8.04799ZM8.04799 24.613C7.72742 24.613 7.47096 24.3295 7.47096 23.9786C7.47096 23.6277 7.73079 23.3442 8.04799 23.3442H22.4028C22.7233 23.3442 22.9798 23.6277 22.9798 23.9786C22.9798 24.3295 22.72 24.613 22.4028 24.613H8.04799ZM27.2147 27.623C26.8941 27.623 26.6377 27.3395 26.6377 26.9886C26.6377 26.6377 26.8975 26.3542 27.2147 26.3542H33.4169C33.7374 26.3542 33.9939 26.6377 33.9939 26.9886C33.9939 27.3395 33.7341 27.623 33.4169 27.623H27.2147ZM26.9852 24.613C26.6646 24.613 26.4082 24.3295 26.4082 23.9786C26.4082 23.6277 26.668 23.3442 26.9852 23.3442H33.1874C33.508 23.3442 33.7644 23.6277 33.7644 23.9786C33.7644 24.3295 33.5046 24.613 33.1874 24.613H26.9852ZM24.9673 11.9151H28.1426L29.3507 16.6561L30.5655 11.9151H33.7273V19.7066H31.7566V13.7676L30.2382 19.7066H28.4531L26.938 13.7676V19.7066H24.9673V11.9151ZM16.538 19.7032V11.9151H20.5502C21.2926 11.9151 21.8629 11.9792 22.2543 12.1074C22.6491 12.2356 22.9663 12.4718 23.2059 12.816C23.4455 13.1636 23.5669 13.5854 23.5669 14.0814C23.5669 14.5134 23.4758 14.8879 23.2902 15.2017C23.108 15.5156 22.8549 15.772 22.5276 15.9677C22.3218 16.0926 22.0383 16.1938 21.684 16.2748C21.9708 16.3693 22.18 16.4638 22.3083 16.5616C22.396 16.6258 22.5242 16.7641 22.693 16.9699C22.8583 17.1792 22.973 17.3411 23.027 17.4525L24.1979 19.7032H21.4782L20.1925 17.3276C20.0305 17.0206 19.8854 16.8215 19.7572 16.727C19.5817 16.6089 19.386 16.5481 19.1667 16.5481H18.9541V19.7032H16.538ZM18.9541 15.0803H19.9698C20.0778 15.0803 20.2937 15.0432 20.6076 14.9723C20.7662 14.9419 20.8978 14.8609 20.999 14.726C21.1002 14.5944 21.1509 14.4425 21.1509 14.2738C21.1509 14.0207 21.0699 13.8284 20.9113 13.6934C20.7527 13.5584 20.4523 13.4909 20.0103 13.4909H18.9507V15.0803H18.9541ZM13.2142 16.5178L15.3232 17.1555C15.1815 17.7461 14.9588 18.2421 14.6517 18.6369C14.348 19.0351 13.9701 19.332 13.5179 19.5345C13.0657 19.737 12.4921 19.8382 11.7936 19.8382C10.9466 19.8382 10.2549 19.7133 9.71495 19.4704C9.17842 19.2241 8.71612 18.7888 8.32469 18.1712C7.93326 17.5537 7.73754 16.7574 7.73754 15.7956C7.73754 14.5066 8.08173 13.5179 8.76674 12.8262C9.45512 12.1344 10.4236 11.7902 11.6789 11.7902C12.6608 11.7902 13.4336 11.9893 13.9937 12.3841C14.5539 12.7823 14.9723 13.3897 15.2456 14.213L13.1265 14.6787C13.0522 14.4425 12.9746 14.2704 12.8937 14.1624C12.7587 13.9802 12.5933 13.8385 12.3976 13.7406C12.2019 13.6394 11.9826 13.5922 11.743 13.5922C11.1963 13.5922 10.7779 13.8115 10.4877 14.2502C10.2684 14.5741 10.157 15.087 10.157 15.7822C10.157 16.646 10.2886 17.2331 10.5518 17.5571C10.815 17.8777 11.1828 18.0363 11.6586 18.0363C12.1175 18.0363 12.4685 17.908 12.7047 17.6482C12.9341 17.385 13.1062 17.0071 13.2142 16.5178ZM39.808 7.85902H1.78507V30.3664C1.78507 30.5823 1.86943 30.7713 2.01115 30.9164C2.15288 31.0615 2.34522 31.1425 2.56118 31.1425H39.0184C39.2344 31.1425 39.4233 31.0581 39.5684 30.9164C39.7135 30.7713 39.7945 30.5823 39.7945 30.3664V7.85902H39.808ZM35.9848 3.15508C36.7508 3.15508 37.3717 3.77597 37.3717 4.54197C37.3717 5.30796 36.7508 5.92885 35.9848 5.92885C35.2188 5.92885 34.5979 5.30796 34.5979 4.54197C34.5979 3.77597 35.2222 3.15508 35.9848 3.15508ZM26.5904 3.15508C27.3564 3.15508 27.9773 3.77597 27.9773 4.54197C27.9773 5.30796 27.3564 5.92885 26.5904 5.92885C25.8244 5.92885 25.2035 5.30796 25.2035 4.54197C25.2035 3.77597 25.8244 3.15508 26.5904 3.15508ZM31.2876 3.15508C32.0536 3.15508 32.6745 3.77597 32.6745 4.54197C32.6745 5.30796 32.0536 5.92885 31.2876 5.92885C30.5216 5.92885 29.9007 5.30796 29.9007 4.54197C29.9007 3.77597 30.5216 3.15508 31.2876 3.15508Z" fill="black"/>
</g>
<defs>
<clipPath id="clip0_152_732">
<rect width="41.4648" height="32.9006" fill="white"/>
</clipPath>
</defs>
</svg>
