<svg width="43" height="32" viewBox="0 0 43 32" fill="none" xmlns="http://www.w3.org/2000/svg">
<g clip-path="url(#clip0_152_740)">
<path fill-rule="evenodd" clip-rule="evenodd" d="M2.91086 0H40.0802C41.6826 0 42.9911 1.30849 42.9911 2.91086V29.0176C42.9911 30.6165 41.6826 31.9284 40.0802 31.9284H2.91086C1.30849 31.9284 0 30.6165 0 29.0176V2.91086C0 1.30849 1.30849 0 2.91086 0ZM19.0535 25.2671L11.1956 20.5054V17.4861L19.0535 12.7245V16.3141L14.2779 19.0045L19.0535 21.6985V25.2671ZM23.9376 25.2671L31.7955 20.5054V17.4861L23.9376 12.7245V16.3141L28.7132 19.0045L23.9376 21.6985V25.2671ZM41.2733 8.1483H1.85077V29.301C1.85077 29.5249 1.93824 29.7208 2.08518 29.8713C2.23212 30.0182 2.43154 30.1057 2.65546 30.1057H40.4546C40.6785 30.1057 40.8744 30.0182 41.0249 29.8713C41.1753 29.7208 41.2593 29.5249 41.2593 29.301V8.1483H41.2733ZM37.3093 3.27121C38.1035 3.27121 38.7473 3.91496 38.7473 4.70915C38.7473 5.50334 38.1035 6.14708 37.3093 6.14708C36.5151 6.14708 35.8714 5.50334 35.8714 4.70915C35.8749 3.91496 36.5186 3.27121 37.3093 3.27121ZM27.5692 3.27121C28.3633 3.27121 29.0071 3.91496 29.0071 4.70915C29.0071 5.50334 28.3633 6.14708 27.5692 6.14708C26.775 6.14708 26.1312 5.50334 26.1312 4.70915C26.1312 3.91496 26.775 3.27121 27.5692 3.27121ZM32.4392 3.27121C33.2334 3.27121 33.8772 3.91496 33.8772 4.70915C33.8772 5.50334 33.2334 6.14708 32.4392 6.14708C31.6451 6.14708 31.0013 5.50334 31.0013 4.70915C31.0013 3.91496 31.6451 3.27121 32.4392 3.27121Z" fill="black"/>
</g>
<defs>
<clipPath id="clip0_152_740">
<rect width="42.9911" height="31.9284" fill="white"/>
</clipPath>
</defs>
</svg>
