<svg width="21" height="17" viewBox="0 0 21 17" fill="none" xmlns="http://www.w3.org/2000/svg">
<path d="M6.35944 16.4253C13.9859 16.4253 18.1584 10.1054 18.1584 4.62637C18.1584 4.4487 18.1544 4.26708 18.1465 4.08941C18.9582 3.50242 19.6587 2.77534 20.215 1.94235C19.4591 2.27868 18.6565 2.49834 17.8346 2.59381C18.7 2.07511 19.3479 1.26024 19.6583 0.300277C18.8442 0.782734 17.954 1.12307 17.0256 1.30669C16.4001 0.642074 15.5731 0.202023 14.6725 0.0545666C13.7718 -0.0928897 12.8477 0.0604622 12.0429 0.490913C11.2381 0.921363 10.5976 1.60494 10.2203 2.43595C9.84295 3.26696 9.7499 4.19912 9.95551 5.08832C8.30711 5.0056 6.69449 4.57739 5.2222 3.83145C3.74991 3.08551 2.45081 2.03849 1.40913 0.758274C0.87969 1.67109 0.717681 2.75125 0.956028 3.77922C1.19438 4.80719 1.81519 5.70584 2.69231 6.29253C2.03382 6.27163 1.38976 6.09434 0.813339 5.77531V5.82664C0.812749 6.78457 1.14392 7.71315 1.75055 8.45452C2.35717 9.19589 3.20183 9.7043 4.14092 9.89334C3.53094 10.0602 2.89073 10.0845 2.26985 9.9644C2.53484 10.7882 3.05043 11.5088 3.74464 12.0255C4.43886 12.5422 5.27707 12.8292 6.14229 12.8466C4.6734 14.0005 2.85889 14.6263 0.99101 14.6233C0.659757 14.6228 0.32883 14.6025 0 14.5625C1.89756 15.7799 4.10494 16.4265 6.35944 16.4253Z" fill="white"/>
</svg>
